<svg xmlns="http://www.w3.org/2000/svg" viewBox="0 0 600 1090">
<defs>
 <linearGradient id="balloon" x1="0" x2="1"><stop offset="0" stop-color="#d8cdb1"/><stop offset=".5" stop-color="#eee5cf"/><stop offset="1" stop-color="#fff6df"/></linearGradient>
 <linearGradient id="basket" x1="0" x2="1"><stop offset="0" stop-color="#5a4142"/><stop offset=".5" stop-color="#79565b"/><stop offset="1" stop-color="#8f686c"/></linearGradient>
 <linearGradient id="flame" x1="0" x2="0" y1="0" y2="1"><stop stop-color="#fff36b"/><stop offset=".45" stop-color="#ffb52d"/><stop offset="1" stop-color="#ff603b"/></linearGradient>
</defs>
<path d="M50 275C45 120 130 35 300 30s255 90 250 245c-4 120-17 220-38 275-40 28-91 36-212 36s-172-8-212-36C67 495 54 395 50 275Z" fill="url(#balloon)" stroke="#111" stroke-width="12"/>
<path d="M105 92C160 45 205 38 245 38c-30 55-48 160-34 420-52 8-98 3-137-18C61 316 67 180 105 92Z" fill="#cfc4a9" opacity=".9"/>
<path d="M385 325c0-28 18-48 49-48 25 0 43 12 43 38v27c0 22-18 39-43 39-31 0-49-22-49-56Z" fill="#050505"/>
<circle cx="449" cy="311" r="10" fill="#fff"/>
<path d="M210 555h180l58 190H152l58-190Z" fill="#5b4146" stroke="#111" stroke-width="11"/>
<path d="M238 565v170M362 565v170" stroke="#8a6269" stroke-width="9"/>
<path d="M300 570v165" stroke="#d46a5b" stroke-width="12"/>
<path d="M95 715h410v90H95z" fill="#8b676d" stroke="#111" stroke-width="12"/>
<path d="M112 805h376l-24 180c-8 48-35 67-77 67H213c-42 0-69-19-77-67Z" fill="url(#basket)" stroke="#111" stroke-width="12"/>
<path d="M145 820v205M225 820v210M375 820v210M455 820v205M110 900h380M120 965h360" stroke="#3f2e32" stroke-width="9" opacity=".75"/>
<path d="M252 1050c-15 35-15 67 5 39 16 30 48 1 44-38 24 32 44 7 27-34 55 58 40 15 27-10-13-26-28-43-55-60-27 17-42 39-48 64Z" fill="url(#flame)" stroke="#d95743" stroke-width="5"/>
</svg>